<?xml version="1.0" encoding="UTF-8"?>
<svg xmlns="http://www.w3.org/2000/svg" xmlns:xlink="http://www.w3.org/1999/xlink" width="1125pt" height="1124.99995pt" viewBox="0 0 1125 1124.99995" version="1.2">
<g id="surface1">
<path style=" stroke:none;fill-rule:nonzero;fill:rgb(16.468811%,48.239136%,100%);fill-opacity:1;" d="M 21.398438 830.464844 L 24.007812 541.597656 L 292.007812 272.742188 L 560.878906 3.019531 L 831.488281 272.742188 L 1102.097656 542.46875 L 1102.097656 1119.328125 L 1035.96875 1119.328125 C 960.269531 1119.328125 968.097656 1123.679688 841.058594 1007.089844 C 675.734375 855.695312 694.007812 867.878906 664.425781 882.667969 C 649.632812 889.628906 609.605469 897.460938 575.671875 900.070312 C 502.582031 904.421875 455.59375 887.890625 399.90625 838.292969 C 347.695312 790.441406 324.203125 735.625 324.203125 662.539062 C 325.074219 591.191406 338.996094 552.910156 385.113281 501.574219 C 437.320312 444.148438 475.605469 427.617188 562.617188 427.617188 C 627.007812 427.617188 641.800781 430.226562 676.605469 451.109375 C 727.945312 480.691406 774.929688 533.765625 789.722656 576.402344 C 805.386719 621.644531 803.644531 715.613281 787.113281 754.765625 L 773.191406 786.960938 L 873.253906 876.578125 C 928.945312 926.171875 976.800781 968.804688 981.152344 969.675781 C 985.5 971.414062 988.980469 889.628906 988.980469 785.21875 L 988.980469 597.28125 L 779.28125 388.464844 C 664.421875 272.742188 566.097656 179.644531 561.75 181.386719 C 557.398438 183.125 459.945312 277.964844 345.085938 392.8125 L 136.253906 600.761719 L 136.253906 1005.347656 L 446.890625 1006.21875 L 757.527344 1006.21875 L 815.828125 1062.773438 L 874.125 1119.328125 L 18.789062 1119.328125 Z M 630.488281 766.078125 C 660.945312 746.066406 684.4375 700.820312 684.4375 662.539062 C 684.4375 571.179688 590.464844 512.886719 510.410156 553.777344 C 418.175781 600.761719 418.175781 722.574219 510.410156 773.039062 C 544.347656 791.308594 595.683594 788.699219 630.488281 766.078125 Z M 630.488281 766.078125 "/>
</g>
</svg>
